<?xml version="1.0" encoding="UTF-8"?>
<svg xmlns="http://www.w3.org/2000/svg" viewBox="0 0 451.11 455.49">
  <defs>
    <style>
      .cls-1 {
        fill: #7371fc;
      }

      .cls-2 {
        stroke: #91c4fb;
      }

      .cls-2, .cls-3, .cls-4, .cls-5, .cls-6 {
        fill: none;
      }

      .cls-2, .cls-3, .cls-4, .cls-6 {
        stroke-linecap: round;
        stroke-linejoin: round;
      }

      .cls-2, .cls-4 {
        stroke-width: 3.2px;
      }

      .cls-3 {
        stroke-width: 4.03px;
      }

      .cls-3, .cls-6 {
        stroke: #32338c;
      }

      .cls-7 {
        fill: #fff;
      }

      .cls-8 {
        fill: #fe814b;
      }

      .cls-9 {
        opacity: .4;
      }

      .cls-9, .cls-10 {
        fill: #f8ab74;
      }

      .cls-9, .cls-11 {
        mix-blend-mode: multiply;
      }

      .cls-12 {
        isolation: isolate;
      }

      .cls-13 {
        fill: #443dc3;
      }

      .cls-14, .cls-11 {
        fill: #91c4fb;
      }

      .cls-15 {
        fill: #f8ab72;
      }

      .cls-16 {
        fill: #32328c;
      }

      .cls-4 {
        stroke: #fe814b;
      }

      .cls-17 {
        fill: #fe632e;
      }

      .cls-18 {
        fill: #fe642e;
      }

      .cls-19 {
        opacity: .3;
      }

      .cls-20 {
        fill: #fefffd;
      }

      .cls-21 {
        fill: #32338c;
      }

      .cls-22 {
        fill: #eef;
      }

      .cls-5 {
        stroke: #7371fc;
        stroke-miterlimit: 10;
      }

      .cls-23 {
        fill: #fe642f;
      }

      .cls-24 {
        fill: #eeeefe;
      }

      .cls-25 {
        fill: #f8ab73;
      }

      .cls-6 {
        stroke-width: 3.88px;
      }
    </style>
  </defs>
  <g class="cls-12">
    <g id="Layer_2" data-name="Layer 2">
      <g id="BACKGROUND">
        <g>
          <path class="cls-22" d="m48.29,349.36c-53.2-62.65-34.56-155.51-2.89-183.65,31.67-28.14,81.92-43.6,108.84-76.47,26.92-32.88,57.93-56.42,114.61-39.45,56.68,16.96,55.83,61.03,72.84,88.3,17,27.27,92.81,42.49,88.49,112.47-4.32,69.97-52.43,69.85-74.38,87.09-21.94,17.24-56.55,98.65-125.82,99.5-84.89,1.04-136.66-34.76-181.69-87.78Z"/>
          <g>
            <g class="cls-19">
              <path class="cls-5" d="m240.01,12.11l-3,10.43c-2.75.75-5.36,1.81-7.78,3.17l-9.61-5.28-8.59,8.48,5.34,9.48c-1.38,2.39-2.46,4.97-3.21,7.68l-10.56,2.96v12.01l10.56,2.96c.76,2.71,1.83,5.29,3.21,7.68l-5.34,9.48,8.59,8.48,9.61-5.28c2.42,1.36,5.04,2.42,7.78,3.17l3,10.43h12.17l3-10.43c2.75-.75,5.36-1.81,7.78-3.17l9.61,5.28,8.59-8.48-5.34-9.48c1.38-2.39,2.46-4.97,3.21-7.68l10.56-2.96v-12.01l-10.56-2.96c-.76-2.71-1.83-5.29-3.21-7.68l5.34-9.48-8.59-8.48-9.61,5.28c-2.42-1.36-5.04-2.42-7.78-3.17l-3-10.43h-12.17Zm6.08,20.5c12.52,0,22.73,10.08,22.73,22.44s-10.21,22.44-22.73,22.44-22.73-10.08-22.73-22.44,10.21-22.44,22.73-22.44Z"/>
            </g>
            <g class="cls-19">
              <path class="cls-5" d="m417.63,209.75l-1.99,6.94c-1.83.5-3.57,1.2-5.18,2.11l-6.39-3.51-5.71,5.64,3.56,6.31c-.92,1.59-1.63,3.31-2.14,5.11l-7.03,1.97v7.99l7.03,1.97c.5,1.8,1.22,3.52,2.14,5.11l-3.56,6.31,5.71,5.64,6.39-3.51c1.61.91,3.35,1.61,5.18,2.11l1.99,6.94h8.1l1.99-6.94c1.83-.5,3.57-1.2,5.18-2.11l6.39,3.51,5.71-5.64-3.56-6.31c.92-1.59,1.63-3.31,2.14-5.11l7.03-1.97v-7.99l-7.03-1.97c-.5-1.8-1.22-3.52-2.14-5.11l3.56-6.31-5.71-5.64-6.39,3.51c-1.61-.91-3.35-1.61-5.18-2.11l-1.99-6.94h-8.1Zm4.05,13.64c8.33,0,15.12,6.71,15.12,14.93s-6.8,14.93-15.12,14.93-15.12-6.71-15.12-14.93,6.8-14.93,15.12-14.93Z"/>
            </g>
            <g class="cls-19">
              <path class="cls-5" d="m54.59,228.02l-4.33,15.08c-3.97,1.08-7.75,2.62-11.25,4.59l-13.89-7.63-12.42,12.26,7.73,13.71c-1.99,3.46-3.55,7.19-4.64,11.11l-15.27,4.28v17.37l15.27,4.28c1.09,3.92,2.65,7.65,4.64,11.11l-7.73,13.71,12.42,12.26,13.89-7.63c3.5,1.97,7.28,3.51,11.25,4.59l4.33,15.08h17.6l4.33-15.08c3.97-1.08,7.75-2.62,11.25-4.59l13.89,7.63,12.42-12.26-7.73-13.71c1.99-3.46,3.55-7.19,4.64-11.11l15.27-4.28v-17.37l-15.27-4.28c-1.09-3.92-2.65-7.65-4.64-11.11l7.73-13.71-12.42-12.26-13.89,7.63c-3.5-1.97-7.28-3.51-11.25-4.59l-4.33-15.08h-17.6Zm8.8,29.64c18.1,0,32.86,14.58,32.86,32.44s-14.77,32.44-32.86,32.44-32.86-14.58-32.86-32.44,14.77-32.44,32.86-32.44Z"/>
            </g>
          </g>
          <g>
            <g>
              <path class="cls-21" d="m211.09,421.59h0c2.26-5.2,6.51-9.35,11.87-11.58l.17-.07-.72-.32c-5.02-2.24-9.01-6.19-11.21-11.1l-.1-.22-.56,1.1c-2.14,4.22-5.62,7.65-9.94,9.79l-1.53.76.09.04c5.14,2.12,9.28,6.01,11.62,10.92l.32.68Z"/>
              <path class="cls-1" d="m226.23,428.73h0c1.13-2.6,3.25-4.68,5.93-5.79l.08-.03-.36-.16c-2.51-1.12-4.51-3.1-5.61-5.55l-.05-.11-.28.55c-1.07,2.11-2.81,3.82-4.97,4.89l-.77.38.05.02c2.57,1.06,4.64,3.01,5.81,5.46l.16.34Z"/>
            </g>
            <g>
              <path class="cls-1" d="m420.41,128.22h0c-1.69-3.89-4.87-6.99-8.87-8.66l-.12-.05.54-.24c3.75-1.68,6.74-4.63,8.38-8.3l.07-.17.42.82c1.6,3.15,4.2,5.72,7.43,7.32l1.15.57-.07.03c-3.84,1.58-6.94,4.5-8.68,8.17l-.24.51Z"/>
              <path class="cls-21" d="m409.1,133.56h0c-.84-1.94-2.43-3.5-4.44-4.33l-.06-.03.27-.12c1.88-.84,3.37-2.31,4.19-4.15l.04-.08.21.41c.8,1.58,2.1,2.86,3.72,3.66l.57.28h-.03c-1.92.81-3.47,2.26-4.34,4.1l-.12.25Z"/>
            </g>
            <g>
              <path class="cls-1" d="m21.07,215.78h0c-1.69-3.89-4.87-6.99-8.87-8.66l-.12-.05.54-.24c3.75-1.68,6.74-4.63,8.38-8.3l.07-.17.42.82c1.6,3.15,4.2,5.72,7.43,7.32l1.15.57-.07.03c-3.84,1.58-6.94,4.5-8.68,8.17l-.24.51Z"/>
              <path class="cls-21" d="m9.76,221.12h0c-.84-1.94-2.43-3.5-4.44-4.33l-.06-.03.27-.12c1.88-.84,3.37-2.31,4.19-4.15l.04-.08.21.41c.8,1.58,2.1,2.86,3.72,3.66l.57.28h-.03c-1.92.81-3.47,2.26-4.34,4.1l-.12.25Z"/>
            </g>
          </g>
        </g>
      </g>
      <g id="OBJECTS">
        <g>
          <path class="cls-21" d="m325.18,91.86c7.37.94,14.44,3.35,21.03,6.77,19.16,9.94,36.39,23.57,50.46,39.93,5.68,6.6,11.05,14.12,11.94,22.79,1.02,9.92-3.97,19.37-8.8,28.1-4.02,7.27-8.88,15.21-16.91,17.32-6.58,1.73-13.48-1.03-19.43-4.34-23.25-12.94-40.69-35.03-50.7-59.69-4.86-11.98-6.67-23.36-5.84-36.19.23-3.59-9.18-3.92-6.65-6.77,3.59-4.05,14.8-9.19,24.9-7.9Z"/>
          <g>
            <path class="cls-25" d="m384.05,113.45c-.77,1.04-1.62,2.02-2.54,2.92-3.17,3.07-7.1,5.26-11.19,6.92-3.03,1.23-6.24,2.2-9.51,2.13-.36,0-.73-.03-1.09-.07.16.63.39,1.23.78,1.76,1.21,1.64,3.46,2.06,5.49,2.18,5.47.32,11.01-.64,16.05-2.78.55-.23,1.12-.51,1.43-1.02.32-.52.29-1.17.25-1.78-.19-3.49,0-6.89.34-10.26Z"/>
            <path class="cls-8" d="m370.32,123.29c4.09-1.66,8.01-3.86,11.19-6.92.93-.89,1.78-1.88,2.54-2.92.55-5.55,1.5-11.01,1.79-16.65-5.69-1.34-14.87,4.57-18.83,8.29-5.11,4.8-8.31,11.86-7.56,18.82.05.48.13.96.25,1.43.36.04.73.06,1.09.07,3.27.06,6.48-.9,9.51-2.13Z"/>
          </g>
          <path class="cls-23" d="m408.63,71.63c3.46-4.87,6.97-9.81,9.1-15.39,2.14-5.58,2.79-11.97.51-17.5-2.29-5.52-7.98-9.83-13.93-9.31,1.87-3.83-.41-8.08-3.53-10.98-3.12-2.9-7.42-4.18-11.63-4.83-11.93-1.84-24.09.66-36.14.13-4.45-.2-9-.85-12.87-3.05-3.87-2.21-6.93-6.24-6.93-10.7-1.56,3.39-3.31,7.49-3.05,11.21.26,3.72,2.29,7.5,5.73,8.96-3.46.98-7.08-1.16-9.33-3.97-2.25-2.81-3.14-6.49-3.37-10.08-3.81,2.4-6.44,6.38-7.86,10.65-1.29,3.89-1.97,8.06-1.29,12.1.68,4.04,2.84,7.94,6.3,10.14-1.65.28-3.43.45-4.97-.2-.1,2.28,1.2,4.45,2.97,5.9s3.96,2.26,6.15,2.92c7.5,2.25,15.38,2.85,23.07,4.35,18.15,3.53,34.91,11.93,52.16,18.59,2.42.93,6.41,1.69,8.92,1.06Z"/>
          <g>
            <path class="cls-10" d="m389.7,68.92c-2.6-9.21-1.22-19.14,1.65-28.27-9.07,8.54-22.42,10.64-34.76,8.97,4.11-2,7.83-4.8,10.9-8.2-12.27-.8-24.93,2.19-37.17,1.05-1.4,4.24-2.31,8.65-2.81,12.73-1.07,8.8-.38,17.73,1.08,26.47,1.59,9.54,4.24,19.23,10.28,26.78,6.04,7.55,16.13,12.5,25.5,10.12,3.49-.89,6.68-2.72,9.62-4.8,10.84-7.68,18.71-18.92,23.99-31.16-3.92-3.63-6.83-8.52-8.28-13.69Z"/>
            <path class="cls-23" d="m367.49,41.42c-3.06,3.4-6.78,6.2-10.9,8.2,12.34,1.67,25.69-.43,34.76-8.97-2.88,9.13-4.25,19.05-1.65,28.27,1.46,5.17,4.36,10.05,8.28,13.69.69-1.59,1.33-3.19,1.93-4.81,2.58-6.96,4.45-14.27,4.51-21.69.07-7.42-1.77-14.99-6.05-21.05-6.03-8.54-16.28-13.25-26.56-15.18-5.02-.94-10.21-1.31-15.22-.32-6.67,1.32-15.75,5.07-20.08,10.68-2.7,3.5-4.72,7.77-6.19,12.23,12.24,1.14,24.9-1.84,37.17-1.05Z"/>
          </g>
          <g>
            <path class="cls-25" d="m392.88,68.97c-1.43,3.82-1.44,8.05-.71,12.07.56,3.1,1.83,6.45,4.68,7.78,2.11.99,4.67.6,6.69-.55,2.02-1.15,3.57-2.97,4.89-4.89,1.99-2.89,3.57-6.15,3.98-9.63.41-3.49-.48-7.22-2.88-9.78-2.34-2.5-6.47-4.32-9.7-2.83-3.26,1.51-5.7,4.52-6.95,7.84Z"/>
            <path class="cls-21" d="m407.92,67.69c-1.02-1.32-2.74-1.84-4.28-1.66-1.57.13-2.95,1.06-3.94,2.25-1.01,1.2-1.66,2.66-2.06,4.2-.42,1.54-.59,3.15-.8,4.78l-.98-.41c.98-1.17,2.44-2.15,4.14-2.04.83.05,1.65.45,2.21,1.04.57.59.91,1.34,1.07,2.1.15.76.14,1.56-.1,2.3-.24.74-.65,1.39-1.16,1.93-1.05,1.06-2.4,1.73-3.8,2.04,1.32-.52,2.57-1.29,3.41-2.37.41-.54.75-1.14.9-1.78.16-.63.12-1.31-.05-1.93-.34-1.25-1.35-2.28-2.55-2.31-1.2-.04-2.42.71-3.22,1.71l-1.18,1.47.2-1.88c.18-1.64.4-3.3.86-4.94.46-1.63,1.23-3.24,2.43-4.51,1.18-1.25,2.82-2.2,4.58-2.23,1.71-.03,3.51.74,4.32,2.23Z"/>
          </g>
          <path class="cls-21" d="m356.09,58.56c.91,4.56.87,9.32.04,13.92-.83,4.61-2.45,9.08-4.83,13.09l-.12-.42c.68.41,1.39.79,2.14,1.09.75.3,1.52.54,2.32.73-.82-.04-1.63-.18-2.43-.4-.8-.22-1.59-.5-2.33-.87l-.26-.13.14-.29c1.97-4.15,3.43-8.52,4.32-13,.89-4.49,1.2-9.08,1.03-13.72Z"/>
          <g>
            <path class="cls-17" d="m352.96,99.76c1.07.68,2.19,1.16,3.34,1.27,3.13.29,6.08-2.57,8.15-5.29-4.16-.28-8.41,1.21-11.49,4.02Z"/>
            <path class="cls-21" d="m355.13,94.56c-3.99-.41-9.91-3.99-9.91-3.99,0,0,3.38,6.39,7.74,9.19,3.08-2.81,7.33-4.3,11.49-4.02,1.8-2.36,2.93-4.62,2.93-4.62,0,0-8.26,3.85-12.25,3.44Z"/>
          </g>
          <path class="cls-16" d="m344.52,67.88c.11,2.13-.92,3.91-2.28,3.98-1.37.07-2.56-1.6-2.67-3.73-.11-2.13.92-3.91,2.28-3.98,1.37-.07,2.56,1.6,2.67,3.73Z"/>
          <path class="cls-16" d="m372.33,68.4c.11,2.13-.92,3.91-2.28,3.98-1.37.07-2.56-1.6-2.67-3.73-.11-2.13.92-3.91,2.28-3.98s2.56,1.6,2.67,3.73Z"/>
          <path class="cls-18" d="m333.94,59.61c.35-1.29.96-2.53,1.75-3.69.4-.57.85-1.12,1.36-1.64.51-.5,1.08-.97,1.68-1.4.61-.42,1.24-.87,1.92-1.25.69-.37,1.46-.55,2.24-.51,1.55.08,3.18.7,4.13,2.25l-.12.43c-1.51.87-2.47,1.35-3.45,1.75-.48.2-.96.29-1.49.3-.53,0-1.09.04-1.61.2-.52.16-1.05.36-1.56.62-.53.23-1.04.52-1.55.84-1.03.63-1.99,1.43-2.93,2.33l-.38-.23Z"/>
          <path class="cls-18" d="m376.95,59.84c-.94-.9-1.9-1.7-2.93-2.33-.5-.32-1.02-.61-1.55-.84-.51-.25-1.03-.46-1.56-.62-.52-.16-1.08-.2-1.61-.2-.53-.01-1.01-.11-1.49-.3-.98-.41-1.94-.88-3.45-1.75l-.12-.43c.95-1.55,2.58-2.17,4.13-2.25.78-.04,1.56.15,2.24.51.69.37,1.31.82,1.92,1.25.61.43,1.17.9,1.68,1.4.5.52.95,1.07,1.36,1.64.79,1.16,1.39,2.4,1.75,3.69l-.38.23Z"/>
          <g>
            <path class="cls-9" d="m343.13,85.83c0,1.7-2.3,3.08-5.14,3.08s-5.14-1.38-5.14-3.08,2.3-3.08,5.14-3.08,5.14,1.38,5.14,3.08Z"/>
            <path class="cls-9" d="m378.79,85.83c0,1.7-2.3,3.08-5.14,3.08s-5.14-1.38-5.14-3.08,2.3-3.08,5.14-3.08,5.14,1.38,5.14,3.08Z"/>
          </g>
          <g>
            <path class="cls-10" d="m333.36.17c-.72,3.51-.18,7.18,1.34,10.35,1.49,3.18,3.93,5.92,7,7.56,3.09,1.61,6.64,2.12,10.16,2.18,3.54.05,7.09-.19,10.63-.51,7.09-.56,14.24-1.52,21.45-.96,3.57.32,7.24,1.18,10.25,3.3,1.47,1.08,2.74,2.42,3.64,3.99.91,1.56,1.42,3.36,1.35,5.15-.05-1.79-.66-3.51-1.61-5-.95-1.48-2.25-2.73-3.7-3.69-2.94-1.94-6.5-2.68-10-2.89-7.08-.37-14.17.57-21.28,1.22-3.57.29-7.15.5-10.75.41-3.58-.11-7.32-.61-10.54-2.44-3.2-1.83-5.66-4.76-7.09-8.08-1.4-3.33-1.82-7.11-.85-10.57Z"/>
            <path class="cls-10" d="m395.13,37.34c-.61-4.11-3.74-7.44-7.41-8.97-3.72-1.6-7.93-1.64-11.89-.96-3.99.7-7.87,2.01-11.82,3.15-3.95,1.13-7.96,2.12-12.06,2.7-4.09.56-8.28.68-12.4.11-4.08-.59-8.25-1.75-11.61-4.33-3.33-2.55-5.76-6.23-6.74-10.29-.93-4.05-.46-8.4,1.37-12.08-1.6,3.77-1.92,8.05-.84,11.94,1.05,3.9,3.49,7.38,6.72,9.73,3.26,2.34,7.25,3.49,11.24,4.01,4.01.52,8.09.37,12.11-.21,4.03-.53,8-1.47,11.94-2.57,3.93-1.08,7.84-2.44,11.96-3.02,4.08-.6,8.43-.46,12.25,1.31,1.89.89,3.57,2.2,4.86,3.83,1.29,1.62,2.16,3.59,2.33,5.64Z"/>
            <path class="cls-10" d="m390.94,35.41c-1.31-2.16-3.61-3.43-5.94-3.83-2.36-.38-4.81.06-7.03.99-2.23.91-4.22,2.37-6.09,3.97-1.86,1.62-3.62,3.4-5.48,5.08,1.54-1.97,3.08-3.95,4.89-5.72,1.79-1.77,3.86-3.37,6.25-4.36,1.2-.48,2.45-.84,3.74-1,1.29-.14,2.61-.11,3.88.19,1.27.3,2.48.86,3.49,1.66.99.81,1.83,1.84,2.27,3.02Z"/>
            <path class="cls-10" d="m404.98,35.2c1.42-.5,3.04-.37,4.47.17,1.44.55,2.7,1.57,3.66,2.78,1.93,2.47,2.71,5.61,2.81,8.65.06,3.07-.58,6.11-1.74,8.9-.58,1.39-1.26,2.74-2.02,4.04-.79,1.28-1.61,2.53-2.53,3.7.71-1.32,1.43-2.61,2.05-3.96.65-1.33,1.22-2.69,1.69-4.08.94-2.77,1.51-5.67,1.43-8.57-.07-2.88-.77-5.8-2.38-8.17-.81-1.18-1.89-2.17-3.19-2.79-1.28-.66-2.78-.92-4.25-.67Z"/>
            <path class="cls-10" d="m397.14,39.95c1.04-.23,2.17.03,3.14.52.98.51,1.8,1.31,2.42,2.22,1.25,1.83,1.87,3.93,2.31,6.03.4,2.12.48,4.29.2,6.42-.13,1.06-.35,2.11-.66,3.13-.17.51-.34,1.01-.54,1.5-.1.24-.18.51-.36.73-.16.21-.46.43-.72.27.28.09.47-.15.58-.36.12-.22.16-.47.22-.73.12-.51.21-1.02.29-1.54.18-1.02.27-2.06.33-3.09.1-2.06-.03-4.12-.42-6.13-.39-2-.96-4.02-1.94-5.77-.51-.86-1.15-1.65-1.97-2.22-.81-.6-1.8-.96-2.86-.99Z"/>
          </g>
        </g>
        <g>
          <rect class="cls-22" x="44.82" y="78" width="126.42" height="137.41" transform="translate(-17.88 15.03) rotate(-7.35)"/>
          <rect class="cls-1" x="34.11" y="48.74" width="126.42" height="29.94" transform="translate(-7.35 12.98) rotate(-7.35)"/>
          <rect class="cls-14" x="28.2" y="87.18" width="17.21" height="137.41" transform="translate(-19.65 5.99) rotate(-7.35)"/>
          <rect class="cls-13" x="17.49" y="57.93" width="17.21" height="29.94" transform="translate(-9.11 3.94) rotate(-7.35)"/>
          <rect class="cls-20" x="47.84" y="93.81" width="19.32" height="26.23" transform="translate(-13.21 8.24) rotate(-7.35)"/>
          <rect class="cls-20" x="70.58" y="90.88" width="19.32" height="26.23" transform="translate(-12.65 11.12) rotate(-7.35)"/>
          <rect class="cls-20" x="93.32" y="87.94" width="19.32" height="26.23" transform="translate(-12.09 14.01) rotate(-7.35)"/>
          <rect class="cls-20" x="116.06" y="85.01" width="19.32" height="26.23" transform="translate(-11.52 16.89) rotate(-7.35)"/>
          <rect class="cls-20" x="138.8" y="82.07" width="19.32" height="26.23" transform="translate(-10.96 19.78) rotate(-7.35)"/>
          <rect class="cls-20" x="51.63" y="123.22" width="19.32" height="26.23" transform="translate(-16.94 8.96) rotate(-7.35)"/>
          <rect class="cls-20" x="74.37" y="120.29" width="19.32" height="26.23" transform="translate(-16.38 11.85) rotate(-7.35)"/>
          <rect class="cls-20" x="97.11" y="117.35" width="19.32" height="26.23" transform="translate(-15.82 14.74) rotate(-7.35)"/>
          <rect class="cls-20" x="119.85" y="114.42" width="19.32" height="26.23" transform="translate(-15.25 17.62) rotate(-7.35)"/>
          <rect class="cls-20" x="142.59" y="111.49" width="19.32" height="26.23" transform="translate(-14.69 20.51) rotate(-7.35)"/>
          <rect class="cls-20" x="55.43" y="152.64" width="19.32" height="26.23" transform="translate(-20.68 9.69) rotate(-7.35)"/>
          <rect class="cls-20" x="78.17" y="149.7" width="19.32" height="26.23" transform="translate(-20.11 12.58) rotate(-7.35)"/>
          <rect class="cls-20" x="100.91" y="146.77" width="19.32" height="26.23" transform="translate(-19.55 15.46) rotate(-7.35)"/>
          <rect class="cls-20" x="123.65" y="143.83" width="19.32" height="26.23" transform="translate(-18.99 18.35) rotate(-7.35)"/>
          <rect class="cls-20" x="146.39" y="140.9" width="19.32" height="26.23" transform="translate(-18.43 21.24) rotate(-7.35)"/>
          <rect class="cls-20" x="59.22" y="182.05" width="19.32" height="26.23" transform="translate(-24.41 10.42) rotate(-7.35)"/>
          <rect class="cls-20" x="81.96" y="179.11" width="19.32" height="26.23" transform="translate(-23.84 13.3) rotate(-7.35)"/>
          <rect class="cls-20" x="104.7" y="176.18" width="19.32" height="26.23" transform="translate(-23.28 16.19) rotate(-7.35)"/>
          <rect class="cls-20" x="127.44" y="173.25" width="19.32" height="26.23" transform="translate(-22.72 19.07) rotate(-7.35)"/>
          <rect class="cls-20" x="150.18" y="170.31" width="19.32" height="26.23" transform="translate(-22.16 21.96) rotate(-7.35)"/>
          <path class="cls-3" d="m25.72,57.85l-1.09-8.44c-.68-5.29,3.05-10.13,8.34-10.82l5.87-.76c5.29-.68,10.13,3.05,10.82,8.34l1.88,14.54c.68,5.29-3.05,10.13-8.34,10.82h0"/>
          <path class="cls-3" d="m42.45,55.69l-1.09-8.44c-.68-5.29,3.05-10.13,8.34-10.82l5.87-.76c5.29-.68,10.13,3.05,10.82,8.34l1.88,14.54c.68,5.29-3.05,10.13-8.34,10.82h0"/>
          <path class="cls-3" d="m59.18,53.54l-1.09-8.44c-.68-5.29,3.05-10.13,8.34-10.82l5.87-.76c5.29-.68,10.13,3.05,10.82,8.34l1.88,14.54c.68,5.29-3.05,10.13-8.34,10.82h0"/>
          <path class="cls-3" d="m75.91,51.38l-1.09-8.44c-.68-5.29,3.05-10.13,8.34-10.82l5.87-.76c5.29-.68,10.13,3.05,10.82,8.34l1.88,14.54c.68,5.29-3.05,10.13-8.34,10.82h0"/>
          <path class="cls-3" d="m92.64,49.22l-1.09-8.44c-.68-5.29,3.05-10.13,8.34-10.82l5.87-.76c5.29-.68,10.13,3.05,10.82,8.34l1.88,14.54c.68,5.29-3.05,10.13-8.34,10.82h0"/>
          <path class="cls-3" d="m109.37,47.06l-1.09-8.44c-.68-5.29,3.05-10.13,8.34-10.82l5.87-.76c5.29-.68,10.13,3.05,10.82,8.34l1.88,14.54c.68,5.29-3.05,10.13-8.34,10.82h0"/>
          <path class="cls-3" d="m126.09,44.9l-1.09-8.44c-.68-5.29,3.05-10.13,8.34-10.82l5.87-.76c5.29-.68,10.13,3.05,10.82,8.34l1.88,14.54c.68,5.29-3.05,10.13-8.34,10.82h0"/>
        </g>
        <g>
          <circle class="cls-21" cx="215.65" cy="232.04" r="153.24"/>
          <circle class="cls-1" cx="222.86" cy="232.04" r="153.24"/>
          <g>
            <path class="cls-7" d="m246.75,307.7c27.65-11.16,52.75-29.71,69.03-54.7,18.91-29.01,24.62-64.2,22.96-99.2-25.13-37.15-67.66-61.58-115.89-61.58-77.22,0-139.81,62.6-139.81,139.81,0,25.6,6.88,49.58,18.89,70.22,44.87,21.22,98.66,24.07,144.82,5.45Z"/>
            <path class="cls-22" d="m338.75,153.8c1.66,35-4.05,70.19-22.96,99.2-16.28,24.98-41.38,43.54-69.03,54.7-46.16,18.62-99.95,15.77-144.82-5.45,24.22,41.62,69.3,69.6,120.92,69.6,77.22,0,139.81-62.6,139.81-139.81,0-28.99-8.82-55.91-23.92-78.24Z"/>
          </g>
          <polygon class="cls-21" points="221.33 233.84 155.55 175.21 224.38 230.23 221.33 233.84"/>
          <polygon class="cls-21" points="225.48 230.38 255.84 341.82 220.24 233.69 225.48 230.38"/>
          <circle class="cls-8" cx="222.86" cy="232.04" r="10.36"/>
          <g>
            <line class="cls-6" x1="222.86" y1="92.22" x2="222.86" y2="121.94"/>
            <line class="cls-6" x1="222.86" y1="342.13" x2="222.86" y2="371.85"/>
            <line class="cls-6" x1="362.67" y1="232.04" x2="332.95" y2="232.04"/>
            <line class="cls-6" x1="112.77" y1="232.04" x2="83.04" y2="232.04"/>
          </g>
          <g>
            <line class="cls-6" x1="104.84" y1="157.07" x2="129.93" y2="173"/>
            <line class="cls-6" x1="315.79" y1="291.07" x2="340.87" y2="307.01"/>
            <line class="cls-6" x1="297.83" y1="114.02" x2="281.89" y2="139.11"/>
            <line class="cls-6" x1="163.82" y1="324.96" x2="147.89" y2="350.05"/>
          </g>
          <g>
            <line class="cls-6" x1="340.87" y1="157.07" x2="315.79" y2="173"/>
            <line class="cls-6" x1="129.93" y1="291.07" x2="104.84" y2="307.01"/>
            <line class="cls-6" x1="147.89" y1="114.02" x2="163.82" y2="139.11"/>
            <line class="cls-6" x1="281.89" y1="324.96" x2="297.83" y2="350.05"/>
          </g>
        </g>
        <g>
          <rect class="cls-10" x="20.02" y="332.17" width="144.3" height="79.31" transform="translate(-125.78 56.79) rotate(-20.75)"/>
          <polygon class="cls-8" points="92.17 371.83 10.65 360.31 95.49 380.59 145.59 309.18 92.17 371.83"/>
        </g>
        <g>
          <g>
            <rect class="cls-21" x="272.04" y="275.59" width="129.25" height="166.73" transform="translate(91.47 -67.74) rotate(13.28)"/>
            <rect class="cls-14" x="274.38" y="276.14" width="129.25" height="166.73" transform="translate(91.66 -68.27) rotate(13.28)"/>
            <rect class="cls-7" x="284.22" y="292.17" width="108.09" height="140.89" transform="translate(92.36 -68.01) rotate(13.28)"/>
            <path class="cls-21" d="m340.84,260.91h38.7c6.21,0,11.25,5.04,11.25,11.25v6.45h-61.2v-6.45c0-6.21,5.04-11.25,11.25-11.25Z" transform="translate(71.61 -75.53) rotate(13.28)"/>
            <g>
              <path class="cls-24" d="m326.85,308.86c-1.32,5.59-6.92,9.04-12.5,7.73s-9.04-6.92-7.73-12.5c1.32-5.59,6.92-9.04,12.5-7.73,5.59,1.32,9.04,6.91,7.73,12.5Z"/>
              <polyline class="cls-4" points="311.88 302.07 316.23 309.1 328.72 301.38"/>
              <g>
                <line class="cls-2" x1="336.98" y1="304.58" x2="394.24" y2="318.09"/>
                <line class="cls-2" x1="335.49" y1="310.9" x2="392.75" y2="324.42"/>
                <line class="cls-2" x1="334" y1="317.22" x2="391.25" y2="330.74"/>
              </g>
            </g>
            <g>
              <path class="cls-24" d="m319.25,341.06c-1.32,5.59-6.92,9.04-12.5,7.73-5.59-1.32-9.04-6.92-7.73-12.5s6.92-9.04,12.5-7.73c5.59,1.32,9.04,6.92,7.73,12.5Z"/>
              <polyline class="cls-4" points="304.28 334.27 308.63 341.29 321.12 333.58"/>
              <g>
                <line class="cls-2" x1="329.38" y1="336.78" x2="386.64" y2="350.29"/>
                <line class="cls-2" x1="327.89" y1="343.1" x2="385.15" y2="356.61"/>
                <line class="cls-2" x1="326.4" y1="349.42" x2="383.65" y2="362.94"/>
              </g>
            </g>
            <g>
              <path class="cls-24" d="m311.65,373.26c-1.32,5.59-6.92,9.04-12.5,7.73-5.59-1.32-9.04-6.92-7.73-12.5,1.32-5.59,6.92-9.04,12.5-7.73,5.59,1.32,9.04,6.92,7.73,12.5Z"/>
              <polyline class="cls-4" points="296.68 366.47 301.03 373.49 313.52 365.77"/>
              <g>
                <line class="cls-2" x1="321.78" y1="368.98" x2="379.04" y2="382.49"/>
                <line class="cls-2" x1="320.29" y1="375.3" x2="377.55" y2="388.81"/>
                <line class="cls-2" x1="318.8" y1="381.62" x2="376.05" y2="395.14"/>
              </g>
            </g>
            <path class="cls-11" d="m312.63,278.24h88.8v5.17c0,2.51-2.04,4.55-4.55,4.55h-79.7c-2.51,0-4.55-2.04-4.55-4.55v-5.17h0Z" transform="translate(74.59 -74.45) rotate(13.28)"/>
          </g>
          <g>
            <path class="cls-24" d="m304.28,405.51c-1.32,5.59-6.92,9.04-12.5,7.73-5.59-1.32-9.04-6.92-7.73-12.5,1.32-5.59,6.92-9.04,12.5-7.73,5.59,1.32,9.04,6.92,7.73,12.5Z"/>
            <polyline class="cls-4" points="289.32 398.72 293.66 405.75 306.15 398.03"/>
            <g>
              <line class="cls-2" x1="314.42" y1="401.23" x2="371.67" y2="414.74"/>
              <line class="cls-2" x1="312.93" y1="407.55" x2="370.18" y2="421.07"/>
              <line class="cls-2" x1="311.43" y1="413.88" x2="368.69" y2="427.39"/>
            </g>
          </g>
        </g>
        <g>
          <path class="cls-7" d="m384.05,145.42c-1.37,3.3-3.04,6.44-4.78,9.53-1.77,3.08-3.61,6.11-5.75,8.98,1.37-3.3,3.04-6.44,4.78-9.53,1.77-3.08,3.61-6.11,5.75-8.98Z"/>
          <g>
            <path class="cls-21" d="m398.79,191.26s-10.09,15.84-20.08,27.63c-9.99,11.8-24.07,25.02-24.07,25.02l-75.34-31.56,11.06-25.8,55.16,17.04,31.78-44.98,21.5,32.64Z"/>
            <g>
              <path class="cls-15" d="m278.48,181.56l11.88,4.99-7.79,18.18-7.72-2.63-17.04.7-5-2.5c-1.84-.92-2.54-3.19-1.53-4.98l1.36-2.43-1.21-.94c-1.72-1.35-1.86-3.91-.29-5.43l1.36-1.31-1.84-2.49c-1.31-1.78-.73-4.3,1.22-5.33l1.87-.98-.61-3.31c-.34-1.88.84-3.7,2.69-4.15h0c2.4-.59,4.94-.09,6.95,1.35l15.7,11.28Z"/>
              <path class="cls-15" d="m278.69,182.78c-3.61-7.74-7.29-15.69-7.94-24.21-.03-.42-.09-.89-.43-1.13-.2-.14-.45-.17-.69-.17-2-.02-3.83,1.47-4.54,3.33-.72,1.87-.44,4.01.41,5.82.19.4.41.81.39,1.25-.02.38-.21.73-.4,1.06-.63,1.11-1.26,2.21-1.89,3.32,3.94,4.79,9.24,8.69,15.09,10.73Z"/>
              <path class="cls-21" d="m271.79,177.63c-.72-.45-1.39-.94-2.07-1.44-.68-.5-1.32-1.02-1.97-1.55-.64-.54-1.28-1.08-1.89-1.65-.61-.57-1.22-1.15-1.79-1.77.72.45,1.4.94,2.07,1.44.68.5,1.32,1.02,1.97,1.55.64.54,1.28,1.08,1.89,1.65.61.57,1.22,1.15,1.79,1.77Z"/>
            </g>
            <g>
              <path class="cls-10" d="m267.87,75.98l18.23,7.04c2.37.91,3.83,3.29,3.58,5.82l-.92,9.28-6.31,10.34s-2.59-.72-1.65-3.62c.93-2.9,4.03-10.65,4.03-10.65v-5.48s-2.99,12.65-5.84,15c-2.85,2.35-13.18-2.24-15.97-4.51-1.36-1.11,1.06-4.69,1.39-10.03.35-5.61-1.25-12.96,3.46-13.18Z"/>
              <path class="cls-21" d="m279.54,80.22c.31,2.1.36,4.23.22,6.35-.14,2.12-.53,4.23-1.07,6.29-.58,2.05-1.32,4.06-2.27,5.96-.95,1.9-2.08,3.72-3.41,5.37,1.14-1.78,2.16-3.63,3.02-5.55.86-1.92,1.59-3.89,2.12-5.92.57-2.02.94-4.09,1.18-6.18.23-2.09.29-4.2.21-6.31Z"/>
              <path class="cls-21" d="m272.6,77.82c.2,2.06.18,4.15.02,6.22-.16,2.07-.52,4.13-.99,6.15-.51,2.02-1.14,4.01-1.94,5.92-.41.95-.84,1.9-1.32,2.82-.25.45-.48.92-.76,1.36-.27.44-.64.88-1.15,1.03.48-.21.78-.66,1.02-1.1.23-.45.43-.94.64-1.41.42-.94.81-1.9,1.17-2.86.72-1.93,1.34-3.89,1.8-5.9.51-1.99.85-4.02,1.1-6.07.25-2.04.37-4.1.41-6.17Z"/>
            </g>
          </g>
        </g>
      </g>
    </g>
  </g>
</svg>